<svg xmlns="http://www.w3.org/2000/svg" viewBox="0 0 1024 1024" width="1024" height="1024">
  <defs>
    <linearGradient id="tile" x1="0" y1="0" x2="0" y2="1">
      <stop offset="0" stop-color="#7c83f7"/>
      <stop offset="0.5" stop-color="#5865f2"/>
      <stop offset="1" stop-color="#4752c4"/>
    </linearGradient>
    <linearGradient id="letter" x1="0" y1="0" x2="0" y2="1">
      <stop offset="0" stop-color="#ffffff"/>
      <stop offset="1" stop-color="#e8e6f5"/>
    </linearGradient>
  </defs>

  <!-- squircle tile -->
  <rect x="112" y="112" width="800" height="800" rx="180" ry="180" fill="url(#tile)"/>

  <!-- letter B -->
  <path fill="url(#letter)" fill-rule="evenodd" d="
    M 372 300
    L 560 300
    C 651 300 712 350 712 426
    C 712 478 684 514 638 532
    C 698 548 734 590 734 652
    C 734 734 668 788 566 788
    L 372 788
    Z
    M 470 384
    L 470 494
    L 552 494
    C 596 494 618 472 618 438
    C 618 406 596 384 552 384
    Z
    M 470 574
    L 470 704
    L 560 704
    C 608 704 634 680 634 638
    C 634 598 608 574 558 574
    Z
  "/>
</svg>
